<svg viewBox="0 0 492 492" xmlns="http://www.w3.org/2000/svg" xmlns:xlink="http://www.w3.org/1999/xlink"><style>:root&gt;svg{display:none}:root&gt;svg:target{display:block}</style><svg viewBox="0 0 21 21" id="cart" xmlns="http://www.w3.org/2000/svg"><path d="M19 14V2h2V0h-3a1 1 0 00-1 1v12H4.562l-2-8H15V3H1.28a1 1 0 00-.97 1.243l2.5 10a1 1 0 00.97.757H18a1 1 0 001-1zm-2 7a2 2 0 100-4 2 2 0 000 4zM5 21a2 2 0 100-4 2 2 0 000 4z"/></svg><svg viewBox="0 0 18 14" id="check" xmlns="http://www.w3.org/2000/svg"><path d="M1 7l6 6L17 1"/></svg><svg viewBox="0 0 491.996 491.996" id="chevron" xmlns="http://www.w3.org/2000/svg"><path d="M484.132 124.986l-16.116-16.228c-5.072-5.068-11.82-7.86-19.032-7.86-7.208 0-13.964 2.792-19.036 7.86l-183.84 183.848L62.056 108.554c-5.064-5.068-11.82-7.856-19.028-7.856s-13.968 2.788-19.036 7.856l-16.12 16.128c-10.496 10.488-10.496 27.572 0 38.06l219.136 219.924c5.064 5.064 11.812 8.632 19.084 8.632h.084c7.212 0 13.96-3.572 19.024-8.632l218.932-219.328c5.072-5.064 7.856-12.016 7.864-19.224 0-7.212-2.792-14.068-7.864-19.128z"/></svg><svg viewBox="0 0 25 62" id="chevron-big" xmlns="http://www.w3.org/2000/svg"><path d="M23.371 61L2 29.064 24 1"/></svg><svg viewBox="0 0 36 36" id="clock" xmlns="http://www.w3.org/2000/svg"><path d="M18 2a16 16 0 100 32 16 16 0 000-32zm6.2 21.18a1 1 0 01-1.39.28l-5.9-4v-8.71a1 1 0 012 0v7.65l5 3.39a1 1 0 01.29 1.39zm-.35-14.95a11.39 11.39 0 10-8.54 20.83L15 30.63a13 13 0 119.7-23.77l-.85 1.37z"/></svg><svg viewBox="0 0 16 16" id="close" xmlns="http://www.w3.org/2000/svg"><path d="M9.175 8l6.075-6.075A.833.833 0 0014.075.75L8 6.825 1.925.742A.833.833 0 00.75 1.917L6.825 8 .742 14.075a.834.834 0 101.175 1.175L8 9.175l6.075 6.075a.833.833 0 001.175-1.175L9.175 8z"/></svg><svg viewBox="0 0 11 19" id="facebook" xmlns="http://www.w3.org/2000/svg"><path d="M11 1.5a.5.5 0 00-.5-.5H8a4.77 4.77 0 00-5 4.5v2.7H.5a.5.5 0 00-.5.5v2.6a.5.5 0 00.5.5H3v6.7a.5.5 0 00.5.5h3a.5.5 0 00.5-.5v-6.7h2.62a.5.5 0 00.49-.37l.72-2.6a.5.5 0 00-.48-.63H7V5.5a1 1 0 011-.9h2.5a.5.5 0 00.5-.5V1.5z"/></svg><svg viewBox="0 0 18 18" id="instagram" xmlns="http://www.w3.org/2000/svg"><path d="M16 0H2C.9 0 0 .9 0 2v14c0 1.101.9 2 2 2h14c1.1 0 2-.899 2-2V2c0-1.1-.9-2-2-2zM8.984 14.523a5.54 5.54 0 005.538-5.539c0-.338-.043-.664-.103-.984H16v7.216a.689.689 0 01-.693.69H2.693a.69.69 0 01-.693-.69V8h1.549c-.061.32-.104.646-.104.984a5.54 5.54 0 005.539 5.539zM5.523 8.984a3.461 3.461 0 116.922 0 3.461 3.461 0 01-6.922 0zM15.307 5h-1.615A.694.694 0 0113 4.308V2.691c0-.382.31-.691.691-.691h1.615c.384 0 .694.309.694.691v1.616c0 .381-.31.693-.693.693z"/></svg><svg data-name="Layer 3" viewBox="0 0 24 24" id="location" xmlns="http://www.w3.org/2000/svg"><path d="M12 2a8.009 8.009 0 00-8 8c0 3.255 2.363 5.958 4.866 8.819.792.906 1.612 1.843 2.342 2.791a1 1 0 001.584 0c.73-.948 1.55-1.885 2.342-2.791C17.637 15.958 20 13.255 20 10a8.009 8.009 0 00-8-8zm0 11a3 3 0 113-3 3 3 0 01-3 3z"/></svg><svg viewBox="0 0 20 16" id="mail" xmlns="http://www.w3.org/2000/svg"><path d="M20 4.608v8.142a3.25 3.25 0 01-3.066 3.245L16.75 16H3.25a3.25 3.25 0 01-3.245-3.066L0 12.75V4.608l9.652 5.056a.75.75 0 00.696 0L20 4.608zM3.25 0h13.5a3.25 3.25 0 013.234 2.924L10 8.154.016 2.924A3.25 3.25 0 013.064.005L3.25 0h13.5-13.5z"/></svg><svg viewBox="0 0 24 24" id="phone" xmlns="http://www.w3.org/2000/svg"><g data-name="Layer 2"><path d="M17.4 22A15.42 15.42 0 012 6.6 4.6 4.6 0 016.6 2a3.94 3.94 0 01.77.07 3.79 3.79 0 01.72.18 1 1 0 01.65.75l1.37 6a1 1 0 01-.26.92c-.13.14-.14.15-1.37.79a9.91 9.91 0 004.87 4.89c.65-1.24.66-1.25.8-1.38a1 1 0 01.92-.26l6 1.37a1 1 0 01.72.65 4.34 4.34 0 01.19.73 4.77 4.77 0 01.06.76A4.6 4.6 0 0117.4 22z" data-name="phone"/></g></svg><svg viewBox="0 0 20 12" id="vk" xmlns="http://www.w3.org/2000/svg"><path fill-rule="evenodd" clip-rule="evenodd" d="M17.802 8.298s1.617 1.597 2.017 2.336c.008.01.014.022.018.035.163.273.203.487.123.645-.135.261-.592.392-.747.403h-2.858c-.199 0-.613-.052-1.117-.4-.385-.269-.768-.712-1.139-1.145-.554-.643-1.033-1.201-1.518-1.201a.548.548 0 00-.18.03c-.367.116-.833.639-.833 2.032 0 .436-.344.684-.585.684H9.674c-.446 0-2.768-.156-4.827-2.327C2.324 6.732.058 1.4.036 1.353-.105 1.008.191.82.511.82h2.886c.387 0 .513.234.601.444.102.241.48 1.205 1.1 2.288 1.004 1.762 1.621 2.479 2.114 2.479a.527.527 0 00.264-.07c.644-.354.524-2.654.494-3.128 0-.092-.001-1.027-.331-1.479-.236-.324-.638-.45-.881-.496.065-.094.203-.238.38-.323.441-.22 1.238-.252 2.029-.252h.439c.858.012 1.08.067 1.392.146.628.15.64.557.585 1.943-.016.396-.033.842-.033 1.367 0 .112-.005.237-.005.364-.019.711-.044 1.512.458 1.841a.41.41 0 00.217.062c.174 0 .695 0 2.108-2.425.62-1.071 1.1-2.334 1.133-2.429.028-.053.112-.202.214-.262a.479.479 0 01.236-.056h3.395c.37 0 .621.056.67.196.082.227-.016.92-1.566 3.016-.261.349-.49.651-.691.915-1.405 1.844-1.405 1.937.083 3.337z"/></svg><svg viewBox="0 0 25 29" id="youtube" xmlns="http://www.w3.org/2000/svg"><path d="M15.804 20.132v3.414c0 .723-.212 1.085-.635 1.085-.25 0-.493-.12-.732-.356v-4.871c.239-.238.483-.357.732-.357.423 0 .635.362.635 1.085zm5.501.016v.744H19.84v-.744c0-.734.245-1.1.733-1.1s.732.366.732 1.1zM5.583 16.62h1.741v-1.521H2.246v1.521h1.71v9.208h1.627V16.62zm4.687 9.208h1.449v-7.994H10.27v6.117c-.325.453-.635.68-.928.68-.195 0-.309-.114-.341-.34-.011-.033-.017-.221-.017-.567v-5.89H7.536v6.327c0 .529.043.923.13 1.182.13.399.445.598.944.598.52 0 1.074-.329 1.66-.987v.874zm6.983-2.395v-3.188c0-.788-.05-1.322-.147-1.602-.184-.604-.57-.906-1.156-.906-.542 0-1.047.29-1.513.873V15.1h-1.449v10.73h1.449v-.778c.488.594.993.89 1.514.89.585 0 .97-.296 1.155-.89.098-.291.147-.83.147-1.618zm5.5-.162v-.21h-1.48c0 .55-.011.88-.033.987-.076.388-.293.583-.65.583-.5 0-.75-.373-.75-1.117v-1.408h2.914v-1.667c0-.852-.147-1.478-.44-1.877-.423-.55-.998-.825-1.725-.825-.738 0-1.318.275-1.741.825-.304.4-.456 1.025-.456 1.877v2.8c0 .852.157 1.478.472 1.877.423.55 1.009.825 1.758.825.781 0 1.367-.285 1.758-.857a1.96 1.96 0 00.341-.874c.022-.097.033-.41.033-.939zM12.859 8.496V5.098c0-.745-.233-1.117-.7-1.117-.466 0-.7.372-.7 1.117v3.398c0 .755.234 1.133.7 1.133.467 0 .7-.378.7-1.133zM24.561 20.65c0 2.524-.142 4.412-.424 5.664a3.07 3.07 0 01-.944 1.602 2.85 2.85 0 01-1.66.744c-1.996.227-5.007.34-9.033.34s-7.037-.113-9.033-.34a2.893 2.893 0 01-1.669-.744 2.954 2.954 0 01-.935-1.602C.58 25.105.439 23.217.439 20.65c0-2.525.142-4.413.424-5.664a3.07 3.07 0 01.944-1.603 2.959 2.959 0 011.676-.76c1.986-.216 4.991-.324 9.017-.324s7.037.108 9.033.324c.63.075 1.186.329 1.668.76.483.432.795.966.936 1.603.282 1.208.424 3.096.424 5.664zM8.317 0h1.66l-1.97 6.457v4.386H6.38V6.457c-.152-.798-.483-1.942-.993-3.43A140.736 140.736 0 014.33 0h1.726L7.21 4.256 8.317 0zm6.022 5.389V8.22c0 .874-.152 1.51-.456 1.91-.412.55-.987.825-1.725.825-.727 0-1.296-.275-1.709-.825-.304-.41-.456-1.047-.456-1.91V5.389c0-.863.152-1.494.456-1.893.412-.55.982-.826 1.71-.826.737 0 1.312.275 1.724.826.304.399.456 1.03.456 1.893zm5.453-2.622v8.076H18.31v-.89c-.575.668-1.133 1.003-1.676 1.003-.499 0-.82-.2-.96-.599-.087-.259-.13-.663-.13-1.214V2.767h1.48v5.94c0 .355.006.544.017.566.033.237.146.356.342.356.293 0 .602-.232.928-.696V2.767h1.48z"/></svg></svg>