<svg width="18" height="18" fill="none" xmlns="http://www.w3.org/2000/svg"><path d="M16 0H2C.9 0 0 .9 0 2v14c0 1.101.9 2 2 2h14c1.1 0 2-.899 2-2V2c0-1.1-.9-2-2-2zM8.984 14.523a5.54 5.54 0 005.538-5.539c0-.338-.043-.664-.103-.984H16v7.216a.689.689 0 01-.693.69H2.693a.69.69 0 01-.693-.69V8h1.549c-.061.32-.104.646-.104.984a5.54 5.54 0 005.539 5.539zM5.523 8.984a3.461 3.461 0 116.922 0 3.461 3.461 0 01-6.922 0zM15.307 5h-1.615A.694.694 0 0113 4.308V2.691c0-.382.31-.691.691-.691h1.615c.384 0 .694.309.694.691v1.616c0 .381-.31.693-.693.693z" fill="#000"/></svg>