<svg width="25" height="29" fill="none" xmlns="http://www.w3.org/2000/svg"><path d="M15.804 20.132v3.414c0 .723-.212 1.085-.635 1.085-.25 0-.493-.12-.732-.356v-4.871c.239-.238.483-.357.732-.357.423 0 .635.362.635 1.085zm5.501.016v.744H19.84v-.744c0-.734.245-1.1.733-1.1s.732.366.732 1.1zM5.583 16.62h1.741v-1.521H2.246v1.521h1.71v9.208h1.627V16.62zm4.687 9.208h1.449v-7.994H10.27v6.117c-.325.453-.635.68-.928.68-.195 0-.309-.114-.341-.34-.011-.033-.017-.221-.017-.567v-5.89H7.536v6.327c0 .529.043.923.13 1.182.13.399.445.598.944.598.52 0 1.074-.329 1.66-.987v.874zm6.983-2.395v-3.188c0-.788-.05-1.322-.147-1.602-.184-.604-.57-.906-1.156-.906-.542 0-1.047.29-1.513.873V15.1h-1.449v10.73h1.449v-.778c.488.594.993.89 1.514.89.585 0 .97-.296 1.155-.89.098-.291.147-.83.147-1.618zm5.5-.162v-.21h-1.48c0 .55-.011.88-.033.987-.076.388-.293.583-.65.583-.5 0-.75-.373-.75-1.117v-1.408h2.914v-1.667c0-.852-.147-1.478-.44-1.877-.423-.55-.998-.825-1.725-.825-.738 0-1.318.275-1.741.825-.304.4-.456 1.025-.456 1.877v2.8c0 .852.157 1.478.472 1.877.423.55 1.009.825 1.758.825.781 0 1.367-.285 1.758-.857a1.96 1.96 0 00.341-.874c.022-.097.033-.41.033-.939zM12.859 8.496V5.098c0-.745-.233-1.117-.7-1.117-.466 0-.7.372-.7 1.117v3.398c0 .755.234 1.133.7 1.133.467 0 .7-.378.7-1.133zM24.561 20.65c0 2.524-.142 4.412-.424 5.664a3.07 3.07 0 01-.944 1.602 2.85 2.85 0 01-1.66.744c-1.996.227-5.007.34-9.033.34s-7.037-.113-9.033-.34a2.893 2.893 0 01-1.669-.744 2.954 2.954 0 01-.935-1.602C.58 25.105.439 23.217.439 20.65c0-2.525.142-4.413.424-5.664a3.07 3.07 0 01.944-1.603 2.959 2.959 0 011.676-.76c1.986-.216 4.991-.324 9.017-.324s7.037.108 9.033.324c.63.075 1.186.329 1.668.76.483.432.795.966.936 1.603.282 1.208.424 3.096.424 5.664zM8.317 0h1.66l-1.97 6.457v4.386H6.38V6.457c-.152-.798-.483-1.942-.993-3.43A140.736 140.736 0 014.33 0h1.726L7.21 4.256 8.317 0zm6.022 5.389V8.22c0 .874-.152 1.51-.456 1.91-.412.55-.987.825-1.725.825-.727 0-1.296-.275-1.709-.825-.304-.41-.456-1.047-.456-1.91V5.389c0-.863.152-1.494.456-1.893.412-.55.982-.826 1.71-.826.737 0 1.312.275 1.724.826.304.399.456 1.03.456 1.893zm5.453-2.622v8.076H18.31v-.89c-.575.668-1.133 1.003-1.676 1.003-.499 0-.82-.2-.96-.599-.087-.259-.13-.663-.13-1.214V2.767h1.48v5.94c0 .355.006.544.017.566.033.237.146.356.342.356.293 0 .602-.232.928-.696V2.767h1.48z" fill="#000"/></svg>