<svg width="21" height="21" viewBox="0 0 21 21" fill="none" xmlns="http://www.w3.org/2000/svg">
<path d="M19 14V2H21V0L18 0C17.7348 0 17.4804 0.105357 17.2929 0.292893C17.1054 0.48043 17 0.734784 17 1V13H4.562L2.562 5L15 5V3L1.28 3C1.12799 3 0.977989 3.03466 0.841387 3.10134C0.704785 3.16801 0.585181 3.26495 0.491665 3.38479C0.398149 3.50462 0.333183 3.6442 0.301704 3.79291C0.270226 3.94162 0.273062 4.09555 0.309999 4.243L2.81 14.243C2.86417 14.4592 2.98905 14.6512 3.16479 14.7883C3.34054 14.9255 3.55707 15 3.78 15H18C18.2652 15 18.5196 14.8946 18.7071 14.7071C18.8946 14.5196 19 14.2652 19 14V14ZM17 21C17.5304 21 18.0391 20.7893 18.4142 20.4142C18.7893 20.0391 19 19.5304 19 19C19 18.4696 18.7893 17.9609 18.4142 17.5858C18.0391 17.2107 17.5304 17 17 17C16.4696 17 15.9609 17.2107 15.5858 17.5858C15.2107 17.9609 15 18.4696 15 19C15 19.5304 15.2107 20.0391 15.5858 20.4142C15.9609 20.7893 16.4696 21 17 21ZM5 21C5.53043 21 6.03914 20.7893 6.41421 20.4142C6.78929 20.0391 7 19.5304 7 19C7 18.4696 6.78929 17.9609 6.41421 17.5858C6.03914 17.2107 5.53043 17 5 17C4.46957 17 3.96086 17.2107 3.58579 17.5858C3.21071 17.9609 3 18.4696 3 19C3 19.5304 3.21071 20.0391 3.58579 20.4142C3.96086 20.7893 4.46957 21 5 21Z" fill="black"/>
</svg>
