<svg width="36" height="36" viewBox="0 0 36 36" fill="none" xmlns="http://www.w3.org/2000/svg">
<path d="M18 2C14.8355 2 11.7421 2.93838 9.11088 4.69649C6.47969 6.45459 4.42893 8.95345 3.21793 11.8771C2.00692 14.8007 1.69007 18.0177 2.30744 21.1214C2.9248 24.2251 4.44865 27.0761 6.68629 29.3137C8.92393 31.5513 11.7749 33.0752 14.8786 33.6926C17.9823 34.3099 21.1993 33.9931 24.1229 32.7821C27.0466 31.5711 29.5454 29.5203 31.3035 26.8891C33.0616 24.2579 34 21.1645 34 18C34 13.7565 32.3143 9.68687 29.3137 6.68629C26.3131 3.68571 22.2435 2 18 2V2ZM24.2 23.18C24.1274 23.2899 24.0337 23.3844 23.9244 23.458C23.8151 23.5316 23.6924 23.5829 23.5632 23.6089C23.434 23.635 23.301 23.6352 23.1717 23.6096C23.0425 23.5841 22.9195 23.5332 22.81 23.46L16.91 19.46V10.75C16.91 10.4848 17.0154 10.2304 17.2029 10.0429C17.3904 9.85536 17.6448 9.75 17.91 9.75C18.1752 9.75 18.4296 9.85536 18.6171 10.0429C18.8046 10.2304 18.91 10.4848 18.91 10.75V18.4L23.91 21.79C24.0207 21.8619 24.1161 21.9549 24.1907 22.0639C24.2653 22.1728 24.3176 22.2954 24.3445 22.4246C24.3715 22.5538 24.3726 22.6871 24.3478 22.8167C24.323 22.9464 24.2728 23.0699 24.2 23.18V23.18ZM23.85 8.23C22.443 7.38191 20.8691 6.84825 19.2364 6.66561C17.6037 6.48298 15.9509 6.6557 14.3912 7.17193C12.8316 7.68815 11.402 8.53567 10.2007 9.65632C8.99942 10.777 8.05475 12.1442 7.43155 13.6643C6.80834 15.1844 6.52134 16.8213 6.59024 18.4627C6.65914 20.1041 7.08231 21.7112 7.83072 23.1737C8.57912 24.6362 9.63505 25.9195 10.9261 26.9355C12.2171 27.9516 13.7126 28.6763 15.31 29.06L15 30.63C13.1679 30.2036 11.4503 29.3847 9.96549 28.2298C8.48074 27.0749 7.26429 25.6116 6.40013 23.9408C5.53597 22.27 5.04468 20.4316 4.96017 18.5525C4.87566 16.6734 5.19996 14.7983 5.91066 13.0567C6.62137 11.3151 7.70156 9.74846 9.07666 8.46496C10.4518 7.18147 12.089 6.21167 13.8754 5.62253C15.6618 5.03339 17.5547 4.83892 19.4236 5.05257C21.2924 5.26622 23.0927 5.88289 24.7 6.86L23.85 8.23Z" fill="black"/>
</svg>
