<svg width="20" height="12" viewBox="0 0 20 12" fill="none" xmlns="http://www.w3.org/2000/svg">
<path fill-rule="evenodd" clip-rule="evenodd" d="M17.802 8.29801C17.802 8.29801 19.419 9.895 19.819 10.634C19.8268 10.6447 19.8329 10.6565 19.837 10.669C20 10.942 20.04 11.156 19.96 11.314C19.825 11.575 19.368 11.706 19.213 11.717H16.355C16.156 11.717 15.742 11.665 15.238 11.317C14.853 11.048 14.47 10.605 14.099 10.172C13.545 9.529 13.066 8.971 12.581 8.971C12.5197 8.97087 12.4589 8.98102 12.401 9.00101C12.034 9.11701 11.568 9.64 11.568 11.033C11.568 11.469 11.224 11.717 10.983 11.717H9.674C9.228 11.717 6.906 11.561 4.847 9.39001C2.324 6.73201 0.0579985 1.4 0.0359985 1.353C-0.105002 1.008 0.190998 0.820005 0.510998 0.820005H3.397C3.784 0.820005 3.91 1.054 3.998 1.264C4.1 1.505 4.478 2.469 5.098 3.552C6.102 5.314 6.719 6.031 7.212 6.031C7.30462 6.03128 7.39568 6.00713 7.476 5.96101C8.12 5.60701 8 3.307 7.97 2.833C7.97 2.741 7.969 1.806 7.639 1.354C7.403 1.03 7.001 0.904005 6.758 0.858005C6.823 0.764005 6.961 0.620005 7.138 0.535005C7.579 0.315005 8.376 0.283005 9.167 0.283005H9.606C10.464 0.295005 10.686 0.350005 10.998 0.429005C11.626 0.579005 11.638 0.986005 11.583 2.372C11.567 2.768 11.55 3.214 11.55 3.739C11.55 3.851 11.545 3.976 11.545 4.103C11.526 4.814 11.501 5.61501 12.003 5.94401C12.0681 5.98456 12.1433 6.00604 12.22 6.006C12.394 6.006 12.915 6.006 14.328 3.581C14.948 2.51 15.428 1.247 15.461 1.152C15.489 1.099 15.573 0.950005 15.675 0.890005C15.7476 0.8514 15.8288 0.832115 15.911 0.834005H19.306C19.676 0.834005 19.927 0.890005 19.976 1.03C20.058 1.257 19.96 1.95 18.41 4.046C18.149 4.395 17.92 4.69701 17.719 4.96101C16.314 6.80501 16.314 6.89801 17.802 8.29801V8.29801Z" fill="black"/>
</svg>
