<svg width="25" height="29" viewBox="0 0 25 29" fill="none" xmlns="http://www.w3.org/2000/svg">
<path d="M15.804 20.1317V23.5463C15.804 24.2692 15.5924 24.6306 15.1693 24.6306C14.9197 24.6306 14.6756 24.5119 14.4368 24.2746V19.4035C14.6756 19.1661 14.9197 19.0474 15.1693 19.0474C15.5924 19.0474 15.804 19.4089 15.804 20.1317ZM21.3053 20.1479V20.8923H19.8405V20.1479C19.8405 19.4142 20.0846 19.0474 20.5729 19.0474C21.0612 19.0474 21.3053 19.4142 21.3053 20.1479ZM5.58268 16.62H7.32422V15.0988H2.24609V16.62H3.95508V25.8281H5.58268V16.62ZM10.2702 25.8281H11.7187V17.8337H10.2702V23.9509C9.94466 24.404 9.63542 24.6306 9.34245 24.6306C9.14714 24.6306 9.0332 24.5173 9.00065 24.2907C8.9898 24.2584 8.98437 24.0696 8.98437 23.7243V17.8337H7.53581V24.1613C7.53581 24.6899 7.57921 25.0837 7.66602 25.3426C7.79622 25.7418 8.11089 25.9414 8.61003 25.9414C9.13086 25.9414 9.68424 25.6124 10.2702 24.9542V25.8281ZM17.2526 23.433V20.245C17.2526 19.4574 17.2038 18.9234 17.1061 18.6429C16.9217 18.0387 16.5365 17.7366 15.9505 17.7366C15.408 17.7366 14.9034 18.0279 14.4368 18.6105V15.0988H12.9883V25.8281H14.4368V25.0513C14.9251 25.6447 15.4297 25.9414 15.9505 25.9414C16.5365 25.9414 16.9217 25.6447 17.1061 25.0513C17.2038 24.76 17.2526 24.2206 17.2526 23.433ZM22.7539 23.2712V23.0608H21.2728C21.2728 23.611 21.2619 23.9401 21.2402 24.048C21.1643 24.4364 20.9473 24.6306 20.5892 24.6306C20.0901 24.6306 19.8405 24.2584 19.8405 23.514V22.106H22.7539V20.4392C22.7539 19.5869 22.6074 18.9611 22.3145 18.5619C21.8913 18.0117 21.3162 17.7366 20.5892 17.7366C19.8513 17.7366 19.2708 18.0117 18.8477 18.5619C18.5438 18.9611 18.3919 19.5869 18.3919 20.4392V23.2388C18.3919 24.0911 18.5493 24.7169 18.8639 25.1161C19.2871 25.6663 19.873 25.9414 20.6217 25.9414C21.403 25.9414 21.9889 25.6555 22.3796 25.0837C22.5749 24.7924 22.6888 24.5011 22.7214 24.2098C22.7431 24.1127 22.7539 23.7999 22.7539 23.2712ZM12.8581 8.49609V5.09766C12.8581 4.35324 12.6248 3.98103 12.1582 3.98103C11.6916 3.98103 11.4583 4.35324 11.4583 5.09766V8.49609C11.4583 9.2513 11.6916 9.62891 12.1582 9.62891C12.6248 9.62891 12.8581 9.2513 12.8581 8.49609ZM24.5605 20.6496C24.5605 23.1741 24.4195 25.0621 24.1374 26.3136C23.9855 26.9501 23.6708 27.4842 23.1934 27.9157C22.7159 28.3473 22.1625 28.5954 21.5332 28.6602C19.5367 28.8867 16.5256 29 12.5 29C8.47439 29 5.46332 28.8867 3.4668 28.6602C2.83746 28.5954 2.28136 28.3473 1.7985 27.9157C1.31565 27.4842 1.00369 26.9501 0.86263 26.3136C0.580512 25.1053 0.439453 23.2173 0.439453 20.6496C0.439453 18.125 0.580512 16.237 0.86263 14.9855C1.01454 14.349 1.32921 13.8149 1.80664 13.3834C2.28407 12.9518 2.84288 12.6983 3.48307 12.6228C5.46875 12.407 8.47439 12.2991 12.5 12.2991C16.5256 12.2991 19.5367 12.407 21.5332 12.6228C22.1625 12.6983 22.7186 12.9518 23.2015 13.3834C23.6844 13.8149 23.9963 14.349 24.1374 14.9855C24.4195 16.1938 24.5605 18.0818 24.5605 20.6496ZM8.31706 0H9.97721L8.00781 6.45703V10.8426H6.38021V6.45703C6.2283 5.65867 5.89735 4.51507 5.38737 3.02623C4.98589 1.91499 4.63325 0.90625 4.32943 0H6.05469L7.21029 4.25614L8.31706 0ZM14.3392 5.38895V8.22098C14.3392 9.09487 14.1873 9.7314 13.8835 10.1306C13.4711 10.6808 12.896 10.9559 12.1582 10.9559C11.4312 10.9559 10.8615 10.6808 10.4492 10.1306C10.1454 9.72061 9.99349 9.08408 9.99349 8.22098V5.38895C9.99349 4.52586 10.1454 3.89472 10.4492 3.49554C10.8615 2.94531 11.4312 2.6702 12.1582 2.6702C12.896 2.6702 13.4711 2.94531 13.8835 3.49554C14.1873 3.89472 14.3392 4.52586 14.3392 5.38895ZM19.7917 2.7673V10.8426H18.3105V9.95257C17.7355 10.6215 17.1766 10.9559 16.6341 10.9559C16.135 10.9559 15.8149 10.7563 15.6738 10.3571C15.587 10.0982 15.5436 9.69364 15.5436 9.14342V2.7673H17.0247V8.70647C17.0247 9.0625 17.0302 9.2513 17.041 9.27288C17.0736 9.51023 17.1875 9.62891 17.3828 9.62891C17.6758 9.62891 17.985 9.39695 18.3105 8.93304V2.7673H19.7917Z" fill="black"/>
</svg>
